<svg width="26" height="25" viewBox="0 0 26 25" fill="none" xmlns="http://www.w3.org/2000/svg">
<path id="Vector" d="M8.62672 10.3576L10.0638 15.519H7.18956L8.62672 10.3576ZM5.32339 22.2211L6.02224 19.7113H11.2311L11.9299 22.221C12.2383 23.3286 13.3816 23.9897 14.4955 23.6697C15.6045 23.3511 16.2327 22.1891 15.9255 21.086L11.8025 6.27856C11.6761 5.82431 11.3862 5.41276 11.0447 5.11504C10.7071 4.82075 10.2342 4.56579 9.7 4.56579H7.5C6.95864 4.56579 6.49443 4.82703 6.16684 5.12866C5.83591 5.43338 5.5723 5.8427 5.45094 6.27854L3.38939 13.6823L1.32785 21.086C1.02068 22.1891 1.64885 23.3511 2.75786 23.6697L2.96494 22.9488L2.75786 23.6697C3.8717 23.9897 5.015 23.3286 5.32339 22.2211ZM20.696 2.31841C20.4886 1.68665 19.9016 1.25 19.229 1.25C18.5563 1.25 17.9693 1.68665 17.762 2.31841L17.0107 4.60781L14.7612 5.36946C14.1261 5.58448 13.708 6.18312 13.708 6.84607C13.708 7.50903 14.1261 8.10767 14.7612 8.32269L17.0107 9.08433L17.762 11.3737C17.9693 12.0055 18.5563 12.4421 19.229 12.4421C19.9016 12.4421 20.4886 12.0055 20.696 11.3737L21.4473 9.08433L23.6968 8.32269C24.3319 8.10767 24.75 7.50903 24.75 6.84607C24.75 6.18311 24.3319 5.58448 23.6968 5.36946L21.4473 4.60781L20.696 2.31841ZM21.3043 14.9229C21.3043 13.7763 20.3861 12.8267 19.229 12.8267C18.0718 12.8267 17.1537 13.7763 17.1537 14.9229V21.6535C17.1537 22.8001 18.0718 23.7497 19.229 23.7497C20.3861 23.7497 21.3043 22.8001 21.3043 21.6535V14.9229Z" fill="white" stroke="black" stroke-width="1.5" stroke-linecap="round" stroke-linejoin="round"/>
</svg>
