<svg width="22" height="23" viewBox="0 0 22 23" fill="none" xmlns="http://www.w3.org/2000/svg">
<g id="Home">
<path id="Rectangle 74" d="M1 9.97565C1 8.76585 1.54755 7.62104 2.48937 6.8617L8.48937 2.02419C9.95466 0.842805 12.0453 0.842807 13.5106 2.0242L19.5106 6.8617C20.4525 7.62104 21 8.76585 21 9.97565V17.5C21 19.7091 19.2091 21.5 17 21.5H15.1579C14.6056 21.5 14.1579 21.0523 14.1579 20.5V17.05C14.1579 15.9454 13.2625 15.05 12.1579 15.05H9.8421C8.73753 15.05 7.84211 15.9454 7.84211 17.05V20.5C7.84211 21.0523 7.39439 21.5 6.84211 21.5H5C2.79086 21.5 1 19.7091 1 17.5L1 9.97565Z" fill="white" stroke="black" stroke-width="1.5"/>
</g>
</svg>
